<?xml version="1.0" encoding="utf-8"?>
<svg xmlns="http://www.w3.org/2000/svg" viewBox="2.2596 0.3478 495.4808 427.4986" width="495.481px" height="427.499px">
  <g id="SVGRepo_bgCarrier" stroke-width="0" transform="matrix(0.9528680443763733, 0, 0, 0.9528690576553345, 4.482848167419434, 0.3478330373764038)"/>
  <g id="SVGRepo_tracerCarrier" stroke-linecap="round" stroke-linejoin="round" transform="matrix(0.9528680443763733, 0, 0, 0.9528690576553345, 4.482848167419434, 0.3478330373764038)"/>
  <g id="Layer_1" style="" transform="matrix(0.61908, 0, 0, 0.521293, 50.865982, 127.266899)">
    <path style="stroke-width: 1.562; fill: rgb(255, 255, 255);" d="M 463.141 1.031 C 406.552 -38.879 364.11 14.338 321.668 14.338 C 279.226 14.338 236.785 -38.879 180.195 1.031 C 107.725 52.145 81.164 346.945 81.164 346.945 L 562.171 346.945 C 562.173 346.944 535.61 52.144 463.141 1.031 Z"/>
    <path style="stroke-width: 1.562; fill: rgb(255, 255, 255);" d="M 91.012 266.777 C 84.209 313.273 81.165 346.945 81.165 346.945 L 562.173 346.945 C 562.173 346.945 559.127 313.275 552.326 266.777 L 91.012 266.777 Z"/>
    <path d="M 720.351 328.027 C 717.282 321.845 709.774 319.316 703.582 322.361 C 703.337 322.481 678.649 334.417 642.34 334.417 L 573.504 334.417 C 570.979 310.497 564.17 252.191 552.124 190.747 C 530.649 81.189 503.14 13.916 470.362 -9.203 C 427.746 -39.258 391.11 -23.233 361.671 -10.356 C 347.368 -4.1 333.856 1.811 321.67 1.811 C 309.482 1.811 295.973 -4.1 281.668 -10.356 C 252.229 -23.234 215.593 -39.262 172.978 -9.203 C 140.199 13.917 112.69 81.189 91.214 190.747 C 79.17 252.192 72.36 310.5 69.834 334.417 L 0.996 334.417 C -35.313 334.417 -60 322.483 -60.208 322.378 C -66.393 319.281 -73.919 321.792 -77.013 327.98 C -80.107 334.167 -77.599 341.692 -71.411 344.786 C -70.213 345.386 -41.555 359.47 0.996 359.47 L 642.34 359.47 C 684.893 359.47 713.549 345.386 714.748 344.786 C 720.921 341.7 723.416 334.211 720.351 328.027 Z M 187.415 11.267 C 218.49 -10.65 243.113 0.12 271.624 12.594 C 287.66 19.608 304.24 26.863 321.667 26.863 C 339.093 26.863 355.674 19.61 371.71 12.594 C 400.221 0.122 424.848 -10.648 455.92 11.267 C 495.77 39.374 522.973 159.128 537.845 254.248 L 105.489 254.248 C 120.362 159.128 147.567 39.372 187.415 11.267 Z M 101.765 279.302 L 541.568 279.302 C 544.491 300.031 546.752 318.869 548.363 334.417 L 94.97 334.417 C 96.582 318.87 98.845 300.033 101.765 279.302 Z" style="stroke-width: 1.562;"/>
  </g>
</svg>