<?xml version="1.0" encoding="utf-8"?>
<svg xmlns="http://www.w3.org/2000/svg" viewBox="2.2596 0.3478 495.4808 427.4986" width="495.481px" height="427.499px">
  <g id="SVGRepo_bgCarrier" stroke-width="0" transform="matrix(0.9528680443763733, 0, 0, 0.9528690576553345, 4.482848167419434, 0.3478330373764038)"/>
  <g id="SVGRepo_tracerCarrier" stroke-linecap="round" stroke-linejoin="round" transform="matrix(0.9528680443763733, 0, 0, 0.9528690576553345, 4.482848167419434, 0.3478330373764038)"/>
  <g id="SVGRepo_iconCarrier" transform="matrix(0.946824, 0, 0, 0.946824, 6.098337, -35.099571)" style="">
    <g id="svg-1">
      <g id="group-1" stroke-width="0" transform="matrix(1.049463, 0, 0, 1.049463, 318.706177, -11.329039)"/>
      <g id="group-2" stroke-linecap="round" stroke-linejoin="round" transform="matrix(1.049463, 0, 0, 1.049463, 318.706177, -11.329039)"/>
      <g id="group-3" transform="matrix(1.049463, 0, 0, 1.049463, 318.706177, -11.329039)">
        <g transform="matrix(0.967738, 0, 0, 0.977307, -10.177184, -6.508037)" style="">
          <rect x="-284" y="211.467" style="fill:#ededed;" width="468.819" height="234.41"/>
          <rect x="135.469" y="211.467" style="fill:#ededed;" width="49.349" height="234.41"/>
          <polygon style="fill:#80CB93;" points="197.156 174.455 184.819 186.793 -284 186.793 -296.34 174.455 -222.31 100.431 123.132 100.431"/>
          <polygon style="fill:#6DC180;" points="123.132 100.431 98.457 100.431 172.481 174.455 160.144 186.793 184.819 186.793 197.156 174.455"/>
          <path style="fill:#95D5A7;" d="M -296.34 211.467 C -296.34 245.536 -268.72 273.154 -234.65 273.154 C -200.58 273.154 -172.96 245.536 -172.96 211.467 C -172.96 245.535 -145.35 273.154 -111.28 273.154 C -77.208 273.154 -49.591 245.536 -49.591 211.467 C -49.591 245.536 -21.973 273.154 12.096 273.154 C 46.165 273.154 73.783 245.536 73.783 211.467 C 73.783 245.535 101.401 273.154 135.47 273.154 C 169.539 273.154 197.157 245.536 197.157 211.467 L 197.157 174.455 L -296.34 174.455 L -296.34 211.467 Z"/>
          <g transform="matrix(1, 0, 0, 1, -305.590912, 17.153751)">
            <path style="fill:#80CB93;" d="M478.072,157.301v37.012c0,29.843-21.193,54.735-49.349,60.451 c3.986,0.809,8.112,1.236,12.337,1.236c34.068,0,61.687-27.618,61.687-61.687v-37.012H478.072z"/>
            <path style="fill:#80CB93;" d="M305.349,254.764c3.986,0.809,8.112,1.236,12.337,1.236c34.068,0,61.687-27.618,61.687-61.687 h-13.371c-6.058,0-11.162,4.409-12.174,10.382C349.575,229.789,330.167,249.725,305.349,254.764z"/>
            <path style="fill:#80CB93;" d="M181.976,254.764c3.986,0.809,8.112,1.236,12.337,1.236C228.382,256,256,228.382,256,194.313 h-13.371c-6.058,0-11.162,4.409-12.174,10.382C226.202,229.789,206.794,249.725,181.976,254.764z"/>
            <path style="fill:#80CB93;" d="M58.602,254.764C62.589,255.573,66.714,256,70.94,256c34.068,0,61.687-27.618,61.687-61.687h-13.371 c-6.058,0-11.162,4.409-12.174,10.382C102.828,229.789,83.42,249.725,58.602,254.764z"/>
          </g>
          <rect x="-12.579" y="310.166" style="fill:#D1E5F5;" width="148.048" height="135.711"/>
          <rect x="61.445" y="310.166" style="fill:#B4D8F1;" width="74.024" height="135.711"/>
          <g transform="matrix(1, 0, 0, 1, -305.590912, 17.153751)">
            <path style="fill: rgb(76, 76, 76);" d="M126.458,437.976c-8.504,0-15.422-6.918-15.422-15.422s6.918-15.422,15.422-15.422 s15.422,6.918,15.422,15.422S134.962,437.976,126.458,437.976z"/>
            <path style="fill: rgb(76, 76, 76);" d="M188.145,437.976c-8.504,0-15.422-6.918-15.422-15.422s6.918-15.422,15.422-15.422 c8.504,0,15.422,6.918,15.422,15.422S196.649,437.976,188.145,437.976z"/>
          </g>
          <path style="fill: rgb(76, 76, 76);" d="M -98.94 418.118 L -197.64 418.118 C -202.15 418.118 -206.01 414.861 -206.76 410.411 L -217.79 345.328 L -234.65 345.328 C -239.76 345.328 -243.9 341.186 -243.9 336.075 C -243.9 330.964 -239.76 326.822 -234.65 326.822 L -209.98 326.822 C -205.46 326.822 -201.61 330.079 -200.85 334.529 L -198.19 350.263 L -86.603 350.263 C -83.753 350.263 -81.064 351.577 -79.309 353.822 C -77.556 356.067 -76.934 358.995 -77.626 361.761 L -89.963 411.11 C -90.994 415.228 -94.695 418.118 -98.94 418.118 Z M -189.82 399.612 L -106.17 399.612 L -98.454 368.769 L -195.05 368.769 L -189.82 399.612 Z"/>
          <path style="fill:#2E2D31;" d="M 206.409 174.455 C 206.409 171.9 205.374 169.588 203.7 167.914 C 203.7 167.914 203.699 167.913 203.699 167.912 L 129.675 93.888 C 127.94 92.153 125.586 91.179 123.133 91.179 L -61.927 91.179 C -67.037 91.179 -71.18 95.321 -71.18 100.432 C -71.18 105.543 -67.037 109.685 -61.927 109.685 L 119.301 109.685 L 174.819 165.203 L -274 165.203 L -218.48 109.684 L -111.28 109.684 C -106.17 109.684 -102.03 105.542 -102.03 100.431 C -102.03 95.32 -106.17 91.178 -111.28 91.178 L -222.31 91.178 C -224.77 91.178 -227.12 92.153 -228.86 93.887 L -302.88 167.911 C -302.88 167.912 -302.88 167.912 -302.88 167.912 C -304.56 169.588 -305.59 171.9 -305.59 174.455 L -305.59 211.467 C -305.59 226.263 -301.03 240.011 -293.25 251.392 L -293.25 445.877 C -293.25 450.988 -289.11 455.13 -284 455.13 L -222.31 455.13 C -217.2 455.13 -213.06 450.988 -213.06 445.877 C -213.06 440.766 -217.2 436.624 -222.31 436.624 L -274.75 436.624 L -274.75 269.948 C -263.33 277.799 -249.52 282.407 -234.65 282.407 C -208.26 282.407 -185.18 267.917 -172.97 246.472 C -160.75 267.917 -137.67 282.407 -111.28 282.407 C -84.882 282.407 -61.808 267.917 -49.591 246.472 C -37.375 267.917 -14.3 282.407 12.096 282.407 C 38.492 282.407 61.566 267.917 73.783 246.472 C 85.999 267.917 109.074 282.407 135.47 282.407 C 150.341 282.407 164.152 277.799 175.566 269.948 L 175.566 436.624 L 144.723 436.624 L 144.723 310.166 C 144.723 305.055 140.58 300.913 135.47 300.913 L -12.579 300.913 C -17.689 300.913 -21.832 305.055 -21.832 310.166 L -21.832 436.624 L -74.266 436.624 C -79.376 436.624 -83.519 440.766 -83.519 445.877 C -83.519 450.988 -79.376 455.13 -74.266 455.13 L 184.819 455.13 C 189.929 455.13 194.072 450.988 194.072 445.877 L 194.072 251.392 C 201.85 240.011 206.409 226.263 206.409 211.467 L 206.409 174.455 Z M -3.326 319.419 L 52.192 319.419 L 52.192 436.624 L -3.326 436.624 L -3.326 319.419 Z M 70.698 436.624 L 70.698 319.419 L 126.216 319.419 L 126.216 436.624 L 70.698 436.624 Z M 135.469 263.901 C 106.556 263.901 83.035 240.38 83.035 211.467 C 83.035 206.356 78.892 202.214 73.782 202.214 C 68.672 202.214 64.529 206.356 64.529 211.467 C 64.529 240.38 41.008 263.901 12.095 263.901 C -16.818 263.901 -40.339 240.38 -40.339 211.467 C -40.339 206.356 -44.482 202.214 -49.592 202.214 C -54.702 202.214 -58.845 206.356 -58.845 211.467 C -58.845 240.38 -82.366 263.901 -111.28 263.901 C -140.19 263.901 -163.71 240.38 -163.71 211.467 C -163.71 206.356 -167.86 202.214 -172.97 202.214 C -178.08 202.214 -182.22 206.356 -182.22 211.467 C -182.22 240.38 -205.74 263.901 -234.65 263.901 C -263.57 263.901 -287.09 240.38 -287.09 211.467 L -287.09 183.708 L 187.901 183.708 L 187.901 211.467 C 187.903 240.38 164.382 263.901 135.469 263.901 Z"/>
        </g>
      </g>
    </g>
  </g>
</svg>